<?xml version="1.0" encoding="utf-8"?>
<!-- Generator: Adobe Illustrator 18.1.1, SVG Export Plug-In . SVG Version: 6.00 Build 0)  -->
<svg version="1.1" id="Layer_1" xmlns="http://www.w3.org/2000/svg" xmlns:xlink="http://www.w3.org/1999/xlink" x="0px" y="0px"
	 viewBox="0 0 1920 1080" xml:space="preserve" fill="#111111">
<rect x="447.3" y="27.3" width="1025.4" height="1025.4"/>
<path fill="#111111" d="M1472.7,216.5v647c0,104.5-84.7,189.2-189.2,189.2h-647c-104.5,0-189.2-84.7-189.2-189.2v-647
	C447.3,112,532,27.3,636.5,27.3h647C1388,27.3,1472.7,112,1472.7,216.5z"/>
<g>
	<g>
		<path fill="#8B0C70" d="M550.9,574.3c-0.2-6.2-0.6-12.4-0.4-18.6c0-3.1,0.1-6.3,0.1-9.4c0-1.6,0-3.2,0.1-4.7
			c0-1.6,0.2-3.2,0.2-4.7c0.2-3.2,0.4-6.3,0.6-9.5c0.1-1.6,0.2-3.2,0.3-4.8l0.2-2.4l0.3-2.4c0.8-6.4,1.4-12.8,2.3-19.2
			c3.7-25.7,10.2-51.6,19.3-76.8c9.2-25.3,21.1-49.9,35.5-73.2c14.4-23.3,31.3-45.3,50.2-65.3c18.9-20,39.9-38.2,62.3-54
			c22.4-15.8,46.3-29.2,70.9-40.1c24.6-10.9,50.1-19.3,75.6-25.1c25.5-5.8,51.1-9.2,76.1-10.4c30-1.5,60.6,0.4,90.9,5.8
			c30.3,5.3,60.2,14.5,88.9,26.9c3.6,1.6,7.2,3.2,10.7,4.7l10.5,5.2c7.1,3.4,13.8,7.4,20.7,11.2c3.5,1.9,6.8,4,10.1,6.1l10,6.3
			c3.3,2.2,6.5,4.5,9.7,6.7l4.8,3.4l2.4,1.7l2.3,1.8c25.2,18.9,48.3,40.8,68.7,65c40.5,48.6,70,106.7,84.2,167.9
			c14.5,61.2,14.7,124.7,1.6,184.2c-1.1-0.2-1.6-5.5-2.4-8.2c-0.8-2.7-1.9-2.9-4.5,6.7c-5.1,19.3-10.6,33.3-15.2,43.5
			c-1.2,2.5-2.2,4.9-3.3,7c-1,2.1-2.1,4-3,5.7c-1.9,3.4-3.5,6.1-4.9,8.1c-5.9,8.2-8.1,7.2-10.2,6.2c-0.5-0.2,0.6-3.7,2.5-8.4
			c0.9-2.4,1.9-5.1,3-8c1.1-2.9,2.3-5.8,3.2-8.6c4.1-11.3,6.7-20.6,2.8-11.8c4.5-13.7,8.7-30,11.6-45.9c0.4-2,0.7-4,1.1-5.9
			c0.3-2,0.6-3.9,0.9-5.9c0.6-3.9,1.2-7.7,1.5-11.4c0.4-3.7,0.8-7.2,1.1-10.6c0.2-3.4,0.4-6.6,0.6-9.6c0.6-12,0.5-20.3,0.1-22.1
			c-0.2-0.9-0.5-0.2-0.8,2.6c-0.3,2.7-0.9,7.5-1.6,14.6c-0.4,2.4-1,5.6-1.5,9.5c-0.3,1.9-0.5,4.1-0.8,6.3c-0.3,2.2-0.7,4.6-1,7.1
			c-1.4,10-3.5,21.6-6,33.2c-1.4,5.7-2.7,11.5-4.3,17c-0.8,2.7-1.6,5.4-2.3,8c-0.9,2.6-1.7,5.1-2.5,7.4c-1.6,4.8-3.3,9-4.9,12.6
			c-0.8,1.8-1.5,3.4-2.2,4.9c-0.7,1.4-1.4,2.7-2.1,3.7c-5.1,8.1-5,3.1-5-1.9c0-2.5,0-4.9-0.6-5.8c-0.6-0.9-1.8,0-4.3,3.9
			c-0.8,2.1-1.8,4.5-2.8,7.1c-1,2.6-2.3,5.3-3.5,8.2c-0.6,1.4-1.3,2.9-1.9,4.4c-0.7,1.5-1.4,3-2.1,4.5c-0.7,1.5-1.4,3.1-2.2,4.6
			c-0.7,1.6-1.5,3.1-2.3,4.6c-6,12.4-13.2,24.1-18,31.9c-6,7-5,2.2-3.7-2.4c1.1-4.6,2.4-9.1-2.3-1.4c-15.4,22.2-34.9,46.8-59.3,69.9
			c-24.3,23.1-53.5,44.5-85.4,60.7c-0.5-1.1-5.3,0-5.8-0.9c-0.2-0.5,0.6-1.4,3.5-3.4c1.4-1,3.2-2.2,5.7-3.7c1.2-0.7,2.6-1.6,4.2-2.5
			c1.5-1,3.2-2,5.1-3.2l6.2-3.6l6.1-3.8c4.1-2.5,8.1-5.3,12.1-8c2-1.3,3.9-2.8,5.9-4.2l5.9-4.2l5.7-4.4c1.9-1.5,3.8-2.9,5.7-4.5
			c14.9-12.2,28.9-25.6,41.8-40.1c25.6-29,46.7-62,61.7-97.6c15.2-35.6,24.3-73.7,27.2-112.3c0.2-2.4,0.3-4.8,0.5-7.3l0.4-7.3
			c0.1-4.8,0.2-9.7,0.2-14.5l-0.4-14.5l-0.1-3.6l-0.3-3.6l-0.6-7.2l-0.6-7.2l-1-7.2l-0.9-7.2l-0.5-3.6l-0.7-3.6l-2.6-14.3l-3.3-14.1
			c-4.8-18.7-11.1-37.1-18.9-54.9l-6-13.2L1271,394c-1.1-2.2-2.3-4.2-3.5-6.3l-3.6-6.3c-2.3-4.2-5.1-8.3-7.7-12.3
			c-10.6-16.2-22.4-31.7-35.4-46c-13.1-14.3-27.3-27.5-42.5-39.5l-5.7-4.5l-2.9-2.2c-1-0.7-2-1.4-3-2.1c-4-2.8-7.9-5.6-11.9-8.3
			l-12.3-7.8c-2-1.4-4.2-2.4-6.3-3.7l-6.3-3.6c-16.9-9.4-34.6-17.4-52.8-23.9l-13.8-4.6c-4.6-1.4-9.3-2.6-13.9-4l-3.5-1
			c-1.2-0.3-2.4-0.5-3.5-0.8l-7.1-1.6l-7.1-1.6l-7.1-1.2l-7.1-1.3c-1.2-0.2-2.4-0.4-3.6-0.6l-3.6-0.4l-14.4-1.8l-14.5-1
			c-1.2-0.1-2.4-0.2-3.6-0.2l-3.6-0.1l-7.3-0.2c-2.4,0-4.8-0.1-7.3-0.1l-7.3,0.2l-7.3,0.2c-1.2,0-2.4,0-3.6,0.1l-3.6,0.3l-14.5,1.2
			l-14.4,1.9c-19.1,2.9-38,7.2-56.4,13.1l-13.7,4.7c-4.5,1.7-9,3.6-13.5,5.3l-3.4,1.3l-3.3,1.5l-6.6,3c-2.2,1-4.4,2-6.6,3l-6.4,3.3
			l-6.4,3.3l-1.6,0.8l-1.6,0.9l-3.1,1.8l-6.3,3.6c-2.1,1.2-4.2,2.4-6.2,3.7l-12.2,7.8l-11.8,8.4c-15.5,11.5-30,24.3-43.5,38.1
			l-5,5.2c-1.6,1.8-3.4,3.4-4.9,5.3l-9.5,10.9c-3,3.8-5.9,7.6-8.9,11.4c-0.7,1-1.5,1.9-2.2,2.9l-2.1,2.9l-4.2,5.9
			c-11,15.8-20.7,32.5-29.1,49.8c-8.3,17.4-15.1,35.4-20.5,53.8l-2,6.9l-1,3.5l-0.8,3.5l-3.2,14l-2.5,14.2c-0.2,1.2-0.5,2.4-0.6,3.5
			l-0.5,3.6l-0.9,7.1c-0.3,2.4-0.7,4.8-0.9,7.1l-0.5,7.2c-0.3,4.8-0.9,9.6-0.9,14.4l-0.4,14.4l0.1,7.2c0.1,2.4,0,4.8,0.2,7.2
			c0.8,19.2,3.1,38.3,6.9,57.1l0.7,3.5l0.8,3.5l1.6,7c1.2,4.6,2.5,9.3,3.7,13.9c2.8,9.2,5.7,18.3,9.2,27.2
			c6.9,17.9,15,35.2,24.7,51.8c9.7,16.5,20.6,32.3,32.7,47.1c12.1,14.8,25.5,28.5,39.8,41.2c3.5,3.2,7.3,6.2,10.9,9.3
			c1.8,1.6,3.7,3,5.6,4.4l5.7,4.4c7.7,5.6,15.5,11.2,23.6,16.2c1.8,1.2,3.6,2.3,5.2,3.4c1.6,1.1,3.2,2,4.7,2.9
			c2.9,1.8,5.4,3.4,7.7,4.7c4.4,2.6,7.4,4.5,9,5.8c1.8,1.3,2.2,1.9,1.5,2c-0.4,0-1-0.1-2-0.3c-0.9-0.2-2-0.6-3.3-1
			c-10.6-3.4-35-14.7-57.3-29.9c15,9.8,13,12.7,28.8,21.4c-0.9,1.5-10-1-26-10.1c-2-1.1-4.1-2.4-6.3-3.8c-2.2-1.4-4.5-2.9-6.9-4.4
			c-2.4-1.6-4.8-3.4-7.4-5.2c-2.6-1.8-5.2-3.9-7.9-6c-10.9-8.6-23-19.4-35.4-33.1c12.2,13.9,25.3,27,39.5,38.9
			c13.5,12.7-2.2,2.7-3.8,4.5c-3.5-3.1-7.1-6.2-10.4-9.1c-3.2-3-6.2-5.8-8.8-8.2c-5.1-4.9-8.6-8-9-7.6c-0.8,0.8-2.5,2.5-3.4,3.3
			c6.6,6.9,16.9,16.8,27.8,26.1c10.9,9.3,22.4,17.8,30.2,23.3c-3.9-2.8-7.8-5.5-11.4-8.2c-3.6-2.7-6.9-5.2-9.8-7.4
			c-5.6-4.4-9.5-7.3-9.9-6.8c-0.8,0.9-2.3,2.7-3.1,3.6c-15.2-12-32.3-29.4-47.6-48.1c-15.2-18.8-28.6-39-38.7-55.5l-3.1,1.8
			c9.2,17.3,23,37.6,38.8,56.3c15.8,18.6,33.5,35.6,48.4,48.2c-7.7-6-11.8-8.8-14.1-10c-2.3-1.1-2.9-0.5-3.7,0.4l-4.1-3.7l-2-1.9
			l-2-2l-7.9-7.9l-7.6-8.2c-2.5-2.7-4.9-5.6-7.3-8.4c-9.5-11.4-18.4-23.2-26.6-35.6c-8.2-12.4-15.7-25.1-22.9-38.1
			c-7.1-13-13.6-26.3-19.9-39.8c7.3,18.4,15.9,36.4,25.8,53.5c-6.2-7.9-13.5-19.5-20.4-33.9c-6.9-14.3-13.5-31.3-18.8-49.2
			c-5.3-18-9.3-36.9-12-55.1C553,606.6,551.7,589.2,550.9,574.3z"/>
	</g>
	<g>
		<path fill="#FFFFFF" d="M1017,387.4l158,91.2c48,27.7,48,97.1,0,124.8l-158,91.2c-48,27.7-108.1-6.9-108.1-62.4V449.8
			C908.9,394.3,969,359.6,1017,387.4z"/>
		<path fill="#FFFFFF" d="M804.1,488.1L804.1,488.1c-25.2,0-45.7,20.4-45.7,45.7v125c0,25.2,20.4,45.7,45.7,45.7h0
			c25.2,0,45.7-20.4,45.7-45.7v-125C849.8,508.6,829.3,488.1,804.1,488.1z"/>
		<path fill="#FFFFFF" d="M804.1,468.9L804.1,468.9c-25.2,0-45.7-20.4-45.7-45.7v0c0-25.2,20.4-45.7,45.7-45.7h0
			c25.2,0,45.7,20.4,45.7,45.7v0C849.8,448.5,829.3,468.9,804.1,468.9z"/>
	</g>
</g>
</svg>
